<svg width="146" height="198" viewBox="0 0 146 198" fill="none" xmlns="http://www.w3.org/2000/svg">
<path d="M27 77.3496C27 77.3496 27 108.698 27 52.0404C27 -3.40902 109.481 -3.43143 113 48.5663" stroke="#171717" stroke-width="19" stroke-linecap="round"/>
<path d="M73.0297 197.808C64.9982 197.808 56.9274 196.459 49.1187 193.746C11.228 180.592 -8.89657 139.059 4.24464 101.155C10.6122 82.7994 23.7534 68.0205 41.2444 59.5436C58.7355 51.0666 78.4801 49.9136 96.8228 56.2812C134.713 69.4355 154.851 110.969 141.697 148.872C135.329 167.228 122.188 182.007 104.697 190.484C94.6478 195.358 83.865 197.808 73.0297 197.808ZM23.7927 107.942C14.3855 135.063 28.7845 164.791 55.9055 174.212C69.0336 178.771 83.1574 177.946 95.6829 171.879C108.208 165.813 117.602 155.24 122.162 142.099C131.569 114.978 117.17 85.2495 90.049 75.8292C76.9209 71.2698 62.784 72.0952 50.2717 78.1614C37.7593 84.2276 28.3521 94.8008 23.7927 107.942Z" fill="#C767A4"/>
<path d="M52.5121 194.324C51.3853 194.324 50.2455 194.14 49.1187 193.747C11.228 180.593 -8.89657 139.06 4.24464 101.156C9.55092 85.8529 19.4952 73.0786 33.0033 64.2086C37.7855 61.0772 44.1924 62.4005 47.3237 67.1827C50.4551 71.9649 49.1318 78.3717 44.3496 81.5031C34.6935 87.8444 27.5792 96.9765 23.7796 107.93C14.3724 135.051 28.7714 164.779 55.8924 174.199C61.2903 176.073 64.1466 181.969 62.273 187.367C60.7925 191.638 56.7833 194.324 52.499 194.324H52.5121Z" fill="url(#paint0_linear_848_3850)"/>
<path d="M72.8855 197.758C64.9458 197.758 56.9143 196.461 49.1187 193.749C35.6761 189.084 24.0023 180.673 15.355 169.432C11.8699 164.898 12.7215 158.413 17.2417 154.928C21.775 151.443 28.2604 152.294 31.7455 156.814C37.9296 164.846 46.2756 170.86 55.9055 174.201C77.9953 181.865 102.653 173.781 115.873 154.535C119.109 149.831 125.542 148.639 130.259 151.862C134.962 155.098 136.168 161.531 132.932 166.248C119.122 186.359 96.3773 197.758 72.8855 197.758Z" fill="url(#paint1_linear_848_3850)"/>
<path d="M132.617 116.996C128.202 116.996 124.101 114.14 122.739 109.698C117.865 93.8976 105.641 81.2411 90.0493 75.83C84.6513 73.9564 81.7951 68.0606 83.6687 62.6626C85.5422 57.2646 91.4381 54.4084 96.8361 56.2819C118.625 63.8417 135.696 81.5294 142.509 103.606C144.2 109.07 141.134 114.861 135.683 116.538C134.661 116.852 133.639 116.996 132.631 116.996H132.617Z" fill="url(#paint2_linear_848_3850)"/>
<path d="M113.423 182.898C110.488 182.898 107.58 181.653 105.536 179.256C101.841 174.906 102.365 168.368 106.728 164.673C112.152 160.061 116.502 154.493 119.647 148.099C122.175 142.976 128.373 140.867 133.495 143.396C138.618 145.924 140.728 152.122 138.199 157.244C133.797 166.18 127.704 173.989 120.118 180.448C118.179 182.099 115.795 182.911 113.423 182.911V182.898ZM135.382 134.499C129.735 134.499 125.123 129.966 125.045 124.293C124.953 117.808 123.669 111.453 121.206 105.413C119.057 100.12 121.599 94.0801 126.892 91.9313C132.185 89.7826 138.225 92.3244 140.374 97.6176C143.807 106.055 145.602 114.938 145.733 124.005C145.811 129.717 141.239 134.408 135.526 134.486C135.474 134.486 135.434 134.486 135.382 134.486V134.499Z" fill="url(#paint3_linear_848_3850)"/>
<path fill-rule="evenodd" clip-rule="evenodd" d="M13.7691 159.68C15.6033 154.295 21.4861 151.478 26.8972 153.378C32.3083 155.278 35.1907 161.2 33.3565 166.585C31.5222 171.97 25.6394 174.786 20.2283 172.887C14.8172 170.987 11.9348 165.065 13.7691 159.68Z" fill="url(#paint4_linear_848_3850)"/>
<path fill-rule="evenodd" clip-rule="evenodd" d="M68.1695 183.789C70.0037 178.404 75.8865 175.588 81.2976 177.487C86.7087 179.387 89.5911 185.309 87.7568 190.694C85.9226 196.079 80.0398 198.896 74.6287 196.996C69.2176 195.096 66.3352 189.174 68.1695 183.789Z" fill="url(#paint5_linear_848_3850)"/>
<path fill-rule="evenodd" clip-rule="evenodd" d="M47.232 181.864C49.0662 176.479 54.949 173.662 60.3601 175.562C65.7712 177.461 68.6536 183.383 66.8193 188.768C64.985 194.153 59.1023 196.97 53.6912 195.07C48.2801 193.171 45.3977 187.248 47.232 181.864Z" fill="url(#paint6_linear_848_3850)"/>
<path fill-rule="evenodd" clip-rule="evenodd" d="M125.609 121.227C127.443 115.842 133.326 113.025 138.737 114.925C144.148 116.825 147.031 122.747 145.196 128.132C143.362 133.516 137.479 136.333 132.068 134.434C126.657 132.534 123.775 126.612 125.609 121.227Z" fill="url(#paint7_linear_848_3850)"/>
<path d="M49.1721 145.808H56.9416L58.9724 115.241L59.1427 112.621L59.7978 115.241L68.6023 145.533H76.6861L85.3858 115.293L86.0409 112.621L86.2113 115.293L88.3599 145.808H96.1294L92.3822 105.336H81.2325L73.0962 134.566L72.6508 136.571L72.2708 134.566L64.0821 105.336H52.9848L49.1328 145.808H49.1721Z" fill="#2D3380"/>
<defs>
<linearGradient id="paint0_linear_848_3850" x1="10.8087" y1="167.819" x2="75.7418" y2="90.4387" gradientUnits="userSpaceOnUse">
<stop stop-color="#1AAD9E"/>
<stop offset="0.01" stop-color="#20AE9A"/>
<stop offset="0.12" stop-color="#57BD7A"/>
<stop offset="0.23" stop-color="#85C960"/>
<stop offset="0.33" stop-color="#A9D34B"/>
<stop offset="0.42" stop-color="#C3DA3C"/>
<stop offset="0.51" stop-color="#D2DE34"/>
<stop offset="0.58" stop-color="#D8E031"/>
</linearGradient>
<linearGradient id="paint1_linear_848_3850" x1="13.2063" y1="173.899" x2="134.753" y2="173.899" gradientUnits="userSpaceOnUse">
<stop stop-color="#C767A4"/>
<stop offset="1" stop-color="#1AAD9E"/>
</linearGradient>
<linearGradient id="paint2_linear_848_3850" x1="113.03" y1="116.996" x2="113.03" y2="55.7055" gradientUnits="userSpaceOnUse">
<stop stop-color="#D7E033"/>
<stop offset="1" stop-color="#DD5871"/>
</linearGradient>
<linearGradient id="paint3_linear_848_3850" x1="91.1762" y1="155.62" x2="153.03" y2="118.463" gradientUnits="userSpaceOnUse">
<stop offset="0.08" stop-color="#78C144"/>
<stop offset="0.65" stop-color="#1AAD9E"/>
</linearGradient>
<linearGradient id="paint4_linear_848_3850" x1="14.7517" y1="168.432" x2="32.3869" y2="157.833" gradientUnits="userSpaceOnUse">
<stop stop-color="#78C144"/>
<stop offset="1" stop-color="#DD5871"/>
</linearGradient>
<linearGradient id="paint5_linear_848_3850" x1="69.139" y1="192.528" x2="86.7742" y2="181.942" gradientUnits="userSpaceOnUse">
<stop stop-color="#D8E033"/>
<stop offset="1" stop-color="#1AAD9E"/>
</linearGradient>
<linearGradient id="paint6_linear_848_3850" x1="48.2015" y1="190.616" x2="65.8367" y2="180.016" gradientUnits="userSpaceOnUse">
<stop stop-color="#D8E033"/>
<stop offset="1" stop-color="#C767A4"/>
</linearGradient>
<linearGradient id="paint7_linear_848_3850" x1="126.578" y1="129.966" x2="144.214" y2="119.379" gradientUnits="userSpaceOnUse">
<stop stop-color="#D8E033"/>
<stop offset="1" stop-color="#1AAD9E"/>
</linearGradient>
</defs>
</svg>
